<svg xmlns="http://www.w3.org/2000/svg" xmlns:xlink="http://www.w3.org/1999/xlink" width="2000" zoomAndPan="magnify" viewBox="0 0 1500 1499.999933" height="2000" preserveAspectRatio="xMidYMid meet" version="1.0"><defs><filter x="0%" y="0%" width="100%" height="100%" id="c94e2c1c91"><feColorMatrix values="0 0 0 0 1 0 0 0 0 1 0 0 0 0 1 0 0 0 1 0" color-interpolation-filters="sRGB"/></filter><mask id="ac29ea05d8"><g filter="url(#c94e2c1c91)"><rect x="-150" width="1800" fill="#000000" y="-149.999993" height="1799.99992" fill-opacity="0.5882"/></g></mask><clipPath id="29680227ce"><path d="M 0 0 L 1500 0 L 1500 1500 L 0 1500 Z M 0 0 " clip-rule="nonzero"/></clipPath><clipPath id="3b6f5659ae"><rect x="0" width="1500" y="0" height="1500"/></clipPath></defs><g mask="url(#ac29ea05d8)"><g transform="matrix(1, 0, 0, 1, 0, 0.000000000000112861)"><g clip-path="url(#3b6f5659ae)"><g clip-path="url(#29680227ce)"><path fill="#6c997f" d="M 1458.316406 1743.714844 C 1393.183594 1745.019531 1330.003906 1739.808594 1268.78125 1734.597656 C 1220.582031 1730.691406 1171.082031 1726.785156 1120.277344 1725.480469 C 1093.574219 1724.828125 1066.871094 1725.480469 1041.46875 1726.132812 C 962.65625 1728.085938 888.40625 1730.039062 808.945312 1698.128906 C 741.207031 1670.777344 689.101562 1622.582031 651.324219 1583.507812 C 641.554688 1573.738281 632.4375 1562.667969 622.667969 1550.945312 C 591.402344 1513.824219 555.578125 1470.84375 509.988281 1466.285156 C 444.203125 1459.121094 379.070312 1428.511719 316.542969 1375.109375 C 283.976562 1347.757812 261.179688 1314.542969 239.035156 1282.632812 C 221.449219 1257.886719 203.863281 1231.835938 181.070312 1208.390625 C 159.574219 1186.246094 134.824219 1168.011719 110.726562 1150.429688 C 97.046875 1140.007812 82.71875 1129.589844 69.039062 1118.519531 C 44.941406 1098.980469 21.492188 1076.839844 0 1053.394531 L 0 1044.925781 C 22.796875 1069.675781 46.894531 1093.121094 72.296875 1113.960938 C 85.976562 1125.03125 99.652344 1135.449219 113.332031 1145.21875 C 137.429688 1162.804688 162.832031 1181.6875 184.324219 1203.832031 C 207.121094 1227.277344 225.359375 1253.328125 242.945312 1278.726562 C 265.089844 1309.984375 287.234375 1342.546875 319.148438 1369.898438 C 381.023438 1422.652344 444.855469 1452.609375 509.335938 1459.773438 C 556.882812 1464.980469 593.355469 1507.964844 625.921875 1546.386719 C 635.691406 1558.109375 645.460938 1569.179688 654.582031 1578.949219 C 692.359375 1617.375 743.8125 1665.566406 810.246094 1692.265625 C 888.40625 1723.527344 962.007812 1721.574219 1040.816406 1719.621094 C 1066.21875 1718.96875 1092.921875 1718.316406 1119.625 1718.96875 C 1170.429688 1720.269531 1219.929688 1724.179688 1268.128906 1728.085938 C 1329.351562 1733.296875 1392.53125 1738.507812 1457.011719 1737.203125 C 1471.339844 1736.550781 1485.019531 1735.902344 1499.347656 1733.296875 L 1499.347656 1739.15625 C 1486.320312 1742.414062 1471.992188 1743.714844 1458.316406 1743.714844 Z M 1500 -68.054688 L 1500 -73.914062 C 1453.105469 -73.914062 1405.558594 -67.402344 1365.175781 -43.957031 C 1323.492188 -20.511719 1300.042969 -13.347656 1260.964844 -31.585938 C 1252.496094 -35.492188 1245.332031 -39.398438 1237.515625 -42.65625 C 1199.089844 -61.542969 1165.871094 -77.824219 1115.71875 -65.449219 L 1114.414062 -64.796875 C 1087.710938 -58.285156 1055.144531 -49.820312 1044.074219 -71.960938 C 1037.558594 -84.988281 1044.722656 -100.617188 1051.890625 -114.945312 C 1053.191406 -116.898438 1053.84375 -119.503906 1055.144531 -121.457031 C 1087.058594 -192.441406 1053.84375 -273.199219 1014.113281 -349.394531 C 988.058594 -398.886719 1003.039062 -447.082031 1018.671875 -498.527344 C 1022.578125 -510.902344 1026.488281 -523.925781 1029.742188 -536.300781 C 1030.394531 -540.207031 1031.699219 -543.464844 1032.347656 -547.371094 L 1026.488281 -547.371094 C 1025.835938 -544.117188 1024.53125 -540.859375 1023.882812 -537.605469 C 1020.625 -525.230469 1016.71875 -512.207031 1012.808594 -499.832031 C 996.527344 -447.730469 981.546875 -398.238281 1008.902344 -346.789062 C 1047.980469 -271.242188 1080.546875 -192.441406 1049.933594 -123.410156 C 1048.632812 -121.457031 1047.980469 -118.851562 1046.679688 -116.898438 C 1039.511719 -101.917969 1031.699219 -84.335938 1038.863281 -68.707031 C 1051.890625 -42.65625 1089.015625 -51.773438 1115.71875 -58.9375 L 1117.671875 -59.589844 C 1165.21875 -71.960938 1197.785156 -55.679688 1234.910156 -37.445312 C 1242.726562 -33.539062 1250.542969 -29.632812 1258.359375 -26.375 C 1299.390625 -7.488281 1324.792969 -14.652344 1367.78125 -39.398438 C 1407.511719 -61.542969 1453.757812 -68.054688 1500 -68.054688 Z M 1500 -68.054688 " fill-opacity="1" fill-rule="nonzero"/><path fill="#737373" d="M 1363.222656 2083.667969 C 1300.695312 2085.621094 1238.820312 2097.34375 1180.199219 2116.878906 L 1162.613281 2116.878906 C 1227.09375 2093.433594 1294.832031 2080.410156 1363.222656 2077.804688 C 1408.816406 2076.503906 1454.40625 2079.109375 1500 2083.667969 L 1500 2089.527344 C 1454.40625 2084.96875 1408.816406 2081.714844 1363.222656 2083.667969 Z M 1478.507812 -387.816406 C 1459.617188 -410.609375 1474.597656 -460.105469 1486.320312 -499.832031 C 1490.882812 -514.808594 1494.789062 -527.835938 1496.742188 -537.605469 C 1497.394531 -540.859375 1498.046875 -544.117188 1498.046875 -548.023438 L 1492.183594 -548.023438 C 1491.53125 -544.769531 1491.53125 -542.164062 1490.882812 -538.90625 C 1489.578125 -529.136719 1485.019531 -516.113281 1481.113281 -501.785156 C 1468.738281 -460.757812 1453.105469 -409.308594 1473.945312 -384.5625 C 1480.460938 -376.746094 1490.230469 -372.1875 1500 -367.628906 L 1500 -374.140625 C 1491.53125 -377.398438 1483.066406 -381.304688 1478.507812 -387.816406 Z M 1500 1984.675781 L 1500 1978.816406 C 1382.109375 1979.46875 1260.964844 1981.421875 1150.238281 2025.707031 C 1130.699219 2033.519531 1110.507812 2041.988281 1091.621094 2050.453125 C 1046.027344 2069.992188 998.480469 2090.179688 948.980469 2103.855469 C 937.253906 2107.113281 924.878906 2109.714844 913.15625 2112.972656 C 907.292969 2113.625 901.433594 2115.578125 895.570312 2116.878906 L 920.320312 2116.878906 C 930.742188 2114.925781 941.164062 2112.320312 950.933594 2109.066406 C 1000.433594 2095.390625 1047.980469 2074.550781 1094.226562 2055.011719 C 1113.113281 2046.546875 1133.304688 2038.078125 1152.84375 2030.265625 C 1262.265625 1986.632812 1382.761719 1984.675781 1500 1984.675781 Z M 1500 -295.339844 L 1500 -301.851562 C 1497.394531 -303.804688 1494.136719 -305.757812 1491.53125 -307.714844 C 1478.507812 -316.832031 1464.828125 -326.597656 1448.546875 -329.203125 C 1439.425781 -330.507812 1430.308594 -329.855469 1421.839844 -328.554688 C 1414.675781 -327.902344 1407.511719 -327.25 1400.347656 -327.25 C 1387.320312 -327.902344 1379.503906 -331.808594 1376.898438 -337.019531 C 1371.039062 -348.089844 1384.714844 -368.929688 1393.835938 -383.910156 C 1395.789062 -386.515625 1397.089844 -389.121094 1398.394531 -391.074219 C 1427.050781 -437.3125 1434.214844 -491.363281 1434.214844 -546.070312 L 1428.355469 -546.070312 C 1427.703125 -492.015625 1421.191406 -439.265625 1393.183594 -393.679688 C 1391.878906 -391.722656 1389.925781 -389.121094 1388.625 -386.515625 C 1377.550781 -369.582031 1363.875 -348.742188 1371.039062 -334.414062 C 1374.945312 -326.597656 1384.0625 -322.039062 1399.695312 -321.390625 C 1407.511719 -320.738281 1414.675781 -322.039062 1421.839844 -322.691406 C 1430.960938 -323.996094 1438.777344 -324.644531 1447.242188 -323.34375 C 1462.222656 -321.390625 1474.597656 -312.273438 1487.625 -303.15625 C 1492.183594 -300.550781 1496.09375 -297.945312 1500 -295.339844 Z M 1500 1902.621094 L 1500 1896.757812 C 1458.964844 1898.0625 1417.28125 1896.109375 1376.898438 1893.503906 L 1180.199219 1883.082031 C 1127.441406 1880.476562 1079.246094 1879.828125 1027.789062 1908.480469 C 968.519531 1941.042969 917.066406 1961.882812 867.5625 1974.257812 C 852.582031 1978.164062 837.601562 1980.769531 822.621094 1984.027344 C 793.3125 1989.886719 763.351562 1995.75 735.34375 2007.472656 C 676.726562 2032.21875 658.488281 2069.992188 650.671875 2117.53125 L 656.535156 2117.53125 C 664.351562 2071.292969 681.9375 2036.125 737.949219 2013.332031 C 765.304688 2001.609375 795.265625 1995.75 823.925781 1990.539062 C 838.90625 1987.28125 854.539062 1984.675781 869.519531 1980.769531 C 919.671875 1967.746094 971.125 1946.90625 1031.046875 1914.34375 C 1081.199219 1886.988281 1128.09375 1886.988281 1180.199219 1890.246094 L 1376.25 1899.363281 C 1417.28125 1901.316406 1458.964844 1903.921875 1500 1902.621094 Z M 1500 -185.929688 L 1500 -191.792969 C 1488.925781 -192.441406 1478.507812 -193.746094 1468.738281 -197.652344 C 1449.195312 -204.164062 1432.914062 -219.144531 1417.28125 -232.820312 C 1399.695312 -248.449219 1381.457031 -264.730469 1358.011719 -270.59375 C 1352.148438 -271.894531 1346.289062 -273.195312 1340.425781 -273.847656 C 1315.675781 -277.757812 1298.089844 -281.011719 1300.695312 -316.832031 C 1301.996094 -332.460938 1308.511719 -348.089844 1315.023438 -363.070312 C 1316.328125 -365.675781 1316.976562 -368.28125 1318.28125 -370.882812 C 1341.078125 -424.285156 1352.148438 -484.203125 1352.800781 -548.023438 L 1346.9375 -548.023438 C 1346.289062 -484.851562 1335.214844 -426.242188 1313.070312 -373.488281 C 1311.765625 -370.882812 1311.117188 -368.28125 1309.8125 -365.675781 C 1303.300781 -350.695312 1296.136719 -334.414062 1295.484375 -317.480469 C 1292.878906 -277.105469 1315.675781 -272.546875 1340.425781 -268.640625 C 1346.289062 -267.335938 1352.148438 -266.683594 1358.011719 -265.382812 C 1380.15625 -259.519531 1397.089844 -244.542969 1415.328125 -228.914062 C 1431.609375 -214.585938 1448.546875 -199.605469 1468.738281 -192.441406 C 1477.203125 -188.535156 1488.925781 -187.234375 1500 -185.929688 Z M 308.726562 1743.0625 C 304.820312 1736.550781 299.609375 1731.34375 293.746094 1726.132812 C 280.722656 1714.410156 265.742188 1702.6875 251.410156 1692.265625 C 231.21875 1677.289062 210.378906 1661.007812 194.09375 1642.773438 C 180.417969 1627.140625 168.042969 1610.210938 156.316406 1593.929688 C 140.035156 1571.785156 123.75 1548.339844 102.257812 1528.804688 C 82.71875 1510.570312 61.222656 1494.9375 40.382812 1479.308594 C 27.355469 1469.539062 13.679688 1459.121094 0 1448.050781 L 0 1455.214844 C 12.375 1464.980469 24.75 1474.097656 36.472656 1483.214844 C 57.316406 1498.847656 78.160156 1514.476562 97.699219 1532.710938 C 118.542969 1552.25 134.824219 1575.042969 150.457031 1597.183594 C 162.179688 1613.464844 174.554688 1630.398438 188.882812 1646.027344 C 205.820312 1664.914062 226.660156 1681.195312 247.503906 1696.175781 C 261.832031 1707.246094 276.160156 1718.316406 289.1875 1730.039062 C 294.398438 1734.597656 299.609375 1739.808594 302.867188 1745.667969 C 313.285156 1763.90625 313.9375 1778.230469 305.472656 1789.304688 C 285.28125 1814.050781 215.589844 1814.703125 187.582031 1804.933594 C 181.71875 1802.980469 175.859375 1801.027344 169.996094 1799.070312 C 128.3125 1784.746094 85.324219 1769.765625 42.335938 1778.882812 C 28.007812 1782.140625 13.679688 1787.347656 0 1793.863281 L 0 1800.375 C 14.328125 1793.863281 28.660156 1787.347656 42.988281 1784.09375 C 84.671875 1774.976562 127.007812 1789.953125 168.042969 1804.28125 C 173.902344 1806.234375 179.765625 1808.1875 185.628906 1810.144531 C 212.332031 1818.609375 285.929688 1821.214844 310.03125 1792.558594 C 321.753906 1780.835938 321.101562 1763.90625 308.726562 1743.0625 Z M 249.457031 2116.878906 C 232.523438 2106.460938 214.9375 2096.691406 196.699219 2090.832031 C 130.917969 2069.992188 67.738281 2062.828125 1.300781 2069.339844 L 1.300781 2075.851562 C 67.085938 2069.339844 129.613281 2075.851562 194.746094 2096.691406 C 209.726562 2101.25 224.054688 2108.414062 238.382812 2116.878906 Z M 628.527344 1793.863281 C 603.777344 1750.226562 558.835938 1730.039062 515.199219 1710.503906 C 490.449219 1699.429688 465.046875 1688.359375 444.203125 1672.730469 C 321.101562 1582.207031 153.0625 1459.121094 59.921875 1306.078125 C 54.058594 1296.308594 48.199219 1285.890625 42.335938 1276.121094 C 29.308594 1253.976562 16.285156 1231.183594 0.652344 1210.34375 L 0.652344 1220.113281 C 14.328125 1239 26.054688 1259.1875 37.125 1279.375 C 42.988281 1289.796875 48.847656 1299.566406 54.710938 1309.332031 C 148.503906 1463.027344 317.195312 1587.417969 440.296875 1677.941406 C 461.789062 1693.570312 487.84375 1705.292969 512.59375 1716.363281 C 555.578125 1735.25 599.21875 1755.4375 623.316406 1797.769531 C 637.648438 1823.167969 652.628906 1873.964844 642.207031 1906.527344 C 638.296875 1918.902344 631.132812 1928.019531 620.0625 1933.230469 C 607.035156 1939.089844 592.054688 1939.742188 577.726562 1940.390625 C 552.324219 1941.695312 525.617188 1942.347656 512.59375 1974.910156 C 505.429688 1992.492188 504.125 2011.378906 502.171875 2030.265625 C 501.519531 2036.777344 500.867188 2043.289062 500.21875 2049.800781 C 496.960938 2075.199219 489.796875 2098.644531 479.375 2118.183594 L 485.886719 2118.183594 C 496.308594 2098.644531 502.824219 2075.851562 506.078125 2051.105469 C 506.730469 2044.59375 507.382812 2038.078125 508.03125 2030.914062 C 509.335938 2012.679688 511.289062 1994.445312 517.804688 1977.511719 C 529.527344 1948.859375 552.324219 1947.554688 577.726562 1946.90625 C 592.707031 1946.253906 608.335938 1945.601562 622.667969 1939.089844 C 635.042969 1933.230469 642.855469 1923.460938 647.417969 1909.132812 C 659.792969 1870.707031 642.207031 1817.957031 628.527344 1793.863281 Z M 42.988281 1613.464844 C 32.566406 1599.140625 18.886719 1587.417969 5.210938 1575.695312 C 3.90625 1574.390625 2.605469 1573.089844 0.652344 1571.785156 L 0.652344 1579.601562 C 0.652344 1579.601562 1.304688 1580.253906 1.304688 1580.253906 C 14.328125 1591.324219 28.007812 1603.046875 37.777344 1616.722656 C 48.847656 1631.699219 57.316406 1654.496094 51.453125 1668.171875 C 48.199219 1675.335938 41.035156 1679.242188 29.960938 1679.894531 C 22.796875 1680.542969 14.328125 1678.589844 5.863281 1677.289062 C 3.90625 1676.636719 1.953125 1676.636719 0.652344 1675.984375 L 0.652344 1681.847656 C 1.953125 1681.847656 3.257812 1682.5 5.210938 1682.5 C 14.328125 1684.453125 22.796875 1685.753906 31.265625 1685.753906 C 44.289062 1684.453125 52.757812 1679.242188 57.316406 1670.125 C 64.480469 1654.496094 55.363281 1630.398438 42.988281 1613.464844 Z M 1426.398438 485.503906 C 1402.953125 428.847656 1328.703125 413.21875 1267.476562 426.894531 C 1240.773438 432.753906 1214.71875 443.175781 1189.316406 452.945312 C 1159.355469 464.664062 1128.09375 477.039062 1095.527344 481.597656 C 980.242188 499.183594 873.425781 425.589844 793.3125 359.164062 C 754.234375 327.253906 709.945312 288.179688 672.816406 241.9375 C 614.199219 168.347656 578.375 79.128906 543.203125 -6.1875 C 514.546875 -76.519531 485.238281 -149.460938 473.511719 -225.65625 C 468.300781 -261.476562 468.300781 -295.992188 468.300781 -329.855469 C 468.300781 -389.769531 468.300781 -445.777344 441.597656 -505.042969 C 435.085938 -520.019531 427.269531 -533.695312 419.453125 -546.722656 L 412.941406 -546.722656 C 422.058594 -533.046875 429.875 -518.066406 437.039062 -502.4375 C 463.742188 -444.476562 463.742188 -388.46875 463.742188 -329.855469 C 463.742188 -295.992188 463.742188 -260.824219 468.953125 -225.003906 C 480.675781 -148.15625 509.988281 -74.566406 538.644531 -4.230469 C 573.816406 81.730469 609.640625 170.953125 668.910156 245.195312 C 706.035156 292.085938 750.976562 331.160156 790.054688 363.070312 C 871.472656 429.5 979.59375 504.390625 1096.832031 486.808594 C 1130.046875 481.597656 1161.3125 469.875 1191.921875 458.152344 C 1216.675781 448.382812 1242.726562 438.617188 1268.78125 432.753906 C 1327.398438 419.730469 1399.042969 434.707031 1421.191406 488.109375 C 1433.566406 518.71875 1427.703125 558.445312 1404.90625 597.519531 C 1394.484375 614.453125 1382.109375 630.734375 1370.386719 646.363281 C 1359.3125 661.34375 1346.9375 676.320312 1337.167969 692.601562 C 1292.226562 766.195312 1280.503906 863.878906 1301.347656 991.523438 C 1306.554688 1022.785156 1313.070312 1054.695312 1319.582031 1085.957031 C 1333.914062 1153.035156 1348.242188 1223.371094 1348.242188 1293.050781 C 1348.242188 1351.011719 1324.792969 1396.601562 1281.15625 1425.253906 C 1253.148438 1443.492188 1216.023438 1454.5625 1174.988281 1456.515625 C 1169.777344 1457.167969 1164.566406 1457.167969 1159.355469 1457.167969 C 1122.230469 1457.167969 1085.105469 1450.65625 1044.074219 1442.839844 C 941.164062 1422.652344 858.445312 1354.921875 778.332031 1289.796875 C 746.417969 1263.746094 713.851562 1237.046875 680.632812 1214.25 C 602.476562 1159.546875 515.199219 1121.125 430.523438 1083.351562 C 412.289062 1075.535156 394.703125 1067.070312 376.464844 1059.253906 C 360.183594 1052.089844 343.898438 1044.277344 328.265625 1036.460938 C 240.339844 992.828125 141.988281 937.472656 82.066406 835.878906 C 39.078125 761.636719 40.382812 678.925781 85.976562 596.871094 C 127.007812 523.277344 131.566406 452.945312 100.957031 369.582031 C 77.507812 305.761719 43.640625 255.617188 2.605469 212.632812 L 2.605469 221.097656 C 41.035156 262.777344 73.597656 310.972656 95.746094 372.1875 C 125.707031 455.546875 121.796875 521.976562 81.414062 594.914062 C 34.519531 678.925781 33.21875 763.589844 77.507812 839.785156 C 137.429688 942.679688 237.082031 998.6875 325.660156 1042.972656 C 341.945312 1050.789062 358.226562 1058.601562 374.511719 1065.765625 C 392.75 1073.582031 410.335938 1082.046875 428.570312 1089.863281 C 516.5 1128.9375 599.871094 1166.058594 678.027344 1220.113281 C 711.246094 1242.90625 743.8125 1269.609375 775.726562 1295.65625 C 856.492188 1361.433594 939.859375 1429.8125 1044.074219 1450.003906 C 1090.96875 1459.121094 1133.304688 1466.933594 1176.292969 1464.332031 C 1218.628906 1462.375 1256.40625 1450.652344 1285.714844 1431.769531 C 1331.308594 1402.460938 1355.40625 1354.921875 1355.40625 1294.355469 C 1355.40625 1224.019531 1340.425781 1153.683594 1326.746094 1085.957031 C 1320.234375 1055.347656 1313.722656 1023.4375 1308.511719 992.175781 C 1287.667969 866.484375 1298.742188 769.449219 1343.683594 697.160156 C 1353.453125 681.53125 1365.175781 665.902344 1376.25 651.574219 C 1388.625 635.945312 1401 619.664062 1411.417969 602.078125 C 1433.566406 559.097656 1439.425781 517.417969 1426.398438 485.503906 Z M 13.027344 334.417969 C 9.769531 323.996094 5.863281 314.226562 1.300781 303.808594 L 1.300781 318.136719 C 3.257812 323.996094 5.863281 329.859375 7.164062 335.71875 C 31.261719 417.125 17.585938 502.4375 4.558594 584.496094 C 3.257812 592.308594 1.953125 600.125 0.652344 607.941406 L 0.652344 647.667969 C 3.257812 627.476562 6.511719 606.636719 9.769531 585.796875 C 23.449219 503.742188 37.125 417.777344 13.027344 334.417969 Z M 1500 599.472656 L 1500 591.007812 C 1477.855469 616.40625 1454.40625 640.503906 1429.65625 663.949219 L 1423.796875 669.15625 C 1411.417969 680.878906 1399.042969 692.601562 1387.972656 705.628906 C 1359.964844 741.445312 1345.636719 791.59375 1347.589844 848.25 C 1348.894531 890.582031 1359.3125 931.609375 1369.734375 970.683594 C 1374.945312 990.222656 1380.15625 1011.0625 1384.0625 1031.25 C 1389.925781 1061.859375 1395.789062 1093.769531 1401 1124.378906 C 1406.859375 1156.289062 1412.070312 1189.503906 1418.585938 1222.066406 L 1419.886719 1227.929688 C 1429.003906 1272.210938 1438.125 1318.449219 1435.519531 1363.386719 C 1430.308594 1451.957031 1366.476562 1510.570312 1260.964844 1524.898438 C 1236.214844 1528.152344 1211.464844 1530.105469 1187.363281 1530.105469 C 975.683594 1530.105469 803.734375 1405.066406 636.34375 1283.933594 C 539.949219 1214.25 440.296875 1141.964844 334.78125 1094.421875 C 320.453125 1087.910156 306.121094 1082.046875 291.792969 1075.535156 C 201.257812 1036.460938 107.46875 995.433594 48.847656 912.722656 C 23.449219 876.90625 9.117188 841.085938 1.953125 804.617188 L 1.953125 827.410156 C 10.421875 857.367188 24.097656 887.324219 44.289062 916.632812 C 104.210938 1000.640625 198.003906 1041.671875 289.839844 1081.398438 C 304.167969 1087.910156 318.496094 1093.769531 332.828125 1100.285156 C 438.339844 1147.824219 537.34375 1219.460938 633.738281 1289.144531 C 820.667969 1424.605469 1014.113281 1564.621094 1262.265625 1531.410156 C 1369.734375 1515.777344 1435.519531 1454.5625 1440.730469 1363.386719 C 1443.335938 1317.148438 1434.214844 1270.910156 1425.097656 1226.625 L 1423.796875 1220.765625 C 1417.28125 1188.203125 1411.417969 1154.988281 1406.210938 1123.078125 C 1401 1092.46875 1395.789062 1061.207031 1389.273438 1029.949219 C 1385.367188 1009.761719 1380.15625 988.921875 1374.945312 968.730469 C 1365.175781 929.65625 1354.753906 889.277344 1353.453125 847.597656 C 1351.496094 792.894531 1365.828125 743.398438 1392.53125 708.882812 C 1402.953125 695.859375 1415.328125 684.136719 1427.703125 673.066406 L 1433.566406 667.855469 C 1457.011719 645.710938 1479.15625 622.917969 1500 599.472656 Z M 1423.796875 228.914062 C 1445.941406 223.054688 1473.296875 216.539062 1500 216.539062 L 1500 210.679688 C 1472.644531 211.332031 1444.636719 217.191406 1421.839844 223.054688 C 1359.964844 239.984375 1279.851562 263.429688 1208.859375 301.203125 C 1193.878906 309.019531 1178.246094 317.484375 1161.960938 323.34375 C 1088.363281 350.699219 1001.738281 336.371094 905.992188 280.363281 C 893.617188 273.199219 880.589844 266.035156 868.867188 259.523438 C 814.808594 229.566406 764.003906 201.5625 725.574219 147.507812 C 691.707031 99.316406 672.167969 42.007812 653.929688 -17.910156 C 622.015625 -120.804688 592.707031 -230.214844 607.035156 -339.625 C 610.289062 -362.417969 614.851562 -385.863281 620.0625 -408.003906 C 629.832031 -454.246094 640.25 -501.785156 634.390625 -548.023438 L 628.527344 -548.023438 C 635.042969 -502.4375 624.621094 -454.894531 614.851562 -409.308594 C 609.640625 -386.515625 605.082031 -363.070312 601.824219 -340.277344 C 586.84375 -230.214844 616.804688 -119.503906 648.71875 -15.953125 C 666.957031 43.960938 686.496094 101.921875 721.015625 150.765625 C 760.09375 206.121094 811.550781 234.773438 866.261719 264.734375 C 878.636719 271.246094 891.011719 278.410156 903.386719 285.574219 C 1001.085938 342.230469 1088.363281 356.558594 1163.917969 328.554688 C 1180.851562 322.042969 1196.484375 314.226562 1211.464844 305.761719 C 1281.804688 269.941406 1361.917969 245.847656 1423.796875 228.914062 Z M 1500 1497.542969 L 1500 1489.078125 C 1473.296875 1516.429688 1436.171875 1539.222656 1388.625 1557.457031 C 1354.753906 1570.484375 1316.976562 1579.601562 1276.59375 1586.113281 C 1156.753906 1605 1047.980469 1594.578125 961.355469 1555.503906 C 850.628906 1505.359375 757.488281 1438.28125 680.632812 1378.367188 C 630.480469 1339.292969 577.074219 1304.773438 526.269531 1271.5625 C 494.355469 1250.722656 461.136719 1229.230469 429.222656 1207.089844 C 377.769531 1171.269531 322.40625 1142.613281 268.996094 1115.914062 C 163.484375 1061.859375 63.179688 1011.0625 0.652344 906.863281 L 0.652344 917.933594 C 64.480469 1018.226562 162.832031 1068.371094 266.390625 1121.125 C 319.800781 1148.476562 374.511719 1176.480469 425.964844 1212.296875 C 457.882812 1234.441406 491.097656 1255.929688 523.011719 1276.769531 C 573.816406 1309.984375 627.226562 1344.5 677.378906 1383.574219 C 754.234375 1443.492188 848.023438 1511.21875 958.75 1561.367188 C 1046.027344 1600.441406 1156.101562 1611.511719 1277.246094 1592.625 C 1318.28125 1586.113281 1356.058594 1576.34375 1390.578125 1563.320312 C 1436.820312 1545.085938 1473.296875 1523.59375 1500 1497.542969 Z M 1498.695312 1044.277344 L 1500 1048.183594 L 1500 1027.34375 C 1477.203125 948.542969 1451.800781 853.460938 1471.992188 775.3125 C 1478.507812 751.214844 1487.625 729.070312 1500 708.230469 L 1500 697.160156 C 1485.671875 720.605469 1473.945312 746.003906 1466.78125 774.007812 C 1444.636719 859.320312 1474.597656 961.566406 1498.695312 1044.277344 Z M 1500 99.96875 L 1500 94.105469 C 1485.019531 96.058594 1470.691406 99.316406 1456.359375 101.921875 L 1445.941406 103.875 C 1406.210938 111.691406 1365.175781 119.503906 1326.746094 135.785156 C 1306.554688 144.902344 1285.714844 155.972656 1263.570312 167.695312 C 1202.34375 200.910156 1139.816406 235.425781 1074.035156 217.191406 C 1016.066406 200.910156 958.097656 167.046875 891.664062 110.386719 C 888.40625 107.132812 884.5 104.527344 881.242188 101.269531 C 861.703125 84.988281 838.90625 66.753906 829.136719 43.960938 C 820.667969 25.074219 818.0625 1.628906 815.457031 -21.164062 C 814.15625 -30.933594 813.503906 -40.703125 811.550781 -49.820312 C 788.753906 -182.023438 765.304688 -318.132812 767.261719 -454.242188 C 767.261719 -459.453125 767.261719 -464.664062 767.261719 -469.875 C 767.910156 -495.925781 768.5625 -522.625 764.003906 -548.675781 L 758.140625 -548.675781 C 762.050781 -522.625 762.050781 -495.925781 761.398438 -469.875 C 761.398438 -464.664062 761.398438 -459.453125 761.398438 -454.242188 C 760.09375 -317.480469 783.542969 -180.71875 806.339844 -48.515625 C 807.640625 -40.050781 808.945312 -30.28125 810.246094 -20.511719 C 812.851562 2.929688 815.457031 26.375 823.925781 45.914062 C 834.347656 70.011719 857.144531 88.894531 877.332031 105.828125 C 880.589844 109.085938 884.5 111.691406 887.753906 114.292969 C 954.839844 171.605469 1014.113281 206.121094 1072.730469 222.402344 C 1140.46875 241.289062 1204.296875 206.121094 1266.175781 172.253906 C 1287.667969 160.535156 1308.511719 149.460938 1328.703125 140.34375 C 1366.476562 124.0625 1407.511719 116.25 1446.589844 109.085938 L 1457.011719 107.132812 C 1471.339844 105.175781 1485.671875 102.574219 1500 99.96875 Z M 1500 1634.304688 L 1500 1627.792969 C 1491.53125 1631.699219 1483.066406 1635.609375 1474.597656 1639.515625 C 1272.035156 1722.875 973.730469 1655.796875 795.917969 1550.296875 C 737.949219 1515.777344 684.542969 1475.402344 636.34375 1429.8125 C 546.460938 1344.5 438.992188 1282.632812 335.433594 1222.71875 C 240.988281 1168.011719 143.292969 1112.003906 60.574219 1039.066406 C 38.429688 1019.527344 18.886719 999.339844 1.300781 977.199219 L 1.300781 986.316406 C 18.238281 1006.503906 36.472656 1025.390625 56.664062 1043.625 C 140.035156 1117.214844 237.734375 1173.222656 332.828125 1227.929688 C 436.386719 1287.84375 543.855469 1349.710938 633.085938 1434.375 C 681.285156 1479.960938 735.34375 1520.988281 793.3125 1555.503906 C 971.777344 1661.007812 1272.035156 1728.738281 1476.550781 1644.726562 C 1485.019531 1641.46875 1492.183594 1638.214844 1500 1634.304688 Z M 1500 8.792969 L 1500 2.929688 C 1494.136719 3.582031 1488.277344 4.886719 1483.066406 5.535156 C 1434.867188 15.304688 1388.625 36.144531 1344.332031 55.683594 C 1302.648438 74.570312 1259.011719 93.453125 1214.070312 103.875 C 1176.941406 112.339844 1147.632812 111.691406 1124.835938 101.269531 C 1105.949219 92.804688 1090.96875 77.171875 1075.988281 62.847656 C 1061.660156 48.519531 1046.679688 33.539062 1027.789062 23.769531 C 1014.761719 17.910156 1004.34375 13.351562 994.570312 8.792969 C 955.492188 -7.488281 945.070312 -11.394531 941.164062 -75.871094 C 937.90625 -127.96875 917.714844 -176.8125 898.828125 -224.355469 C 885.148438 -258.21875 870.820312 -293.386719 863.003906 -329.203125 C 851.933594 -379.351562 851.28125 -434.054688 850.628906 -486.15625 C 850.628906 -506.34375 850.628906 -527.183594 849.328125 -548.023438 L 843.464844 -548.023438 C 844.117188 -527.835938 844.117188 -506.996094 844.769531 -486.15625 C 844.769531 -433.402344 845.417969 -378.699219 857.144531 -327.902344 C 865.609375 -291.433594 879.289062 -256.265625 893.617188 -222.398438 C 912.503906 -174.859375 932.046875 -126.667969 935.953125 -75.21875 C 939.859375 -6.835938 952.886719 -1.628906 991.96875 14.652344 C 1001.085938 18.5625 1012.15625 23.121094 1024.53125 28.980469 C 1042.117188 37.449219 1057.097656 52.425781 1071.429688 66.753906 C 1086.410156 81.730469 1102.039062 97.363281 1121.582031 106.480469 C 1145.679688 117.550781 1176.292969 118.855469 1214.71875 109.734375 C 1260.3125 99.316406 1303.953125 79.777344 1346.289062 60.894531 C 1390.578125 41.355469 1436.171875 21.167969 1483.714844 10.746094 C 1489.578125 10.09375 1494.789062 9.445312 1500 8.792969 Z M 1500 1812.746094 L 1500 1806.886719 C 1437.472656 1810.792969 1375.597656 1807.539062 1320.234375 1801.675781 C 1247.285156 1794.511719 1180.851562 1800.375 1110.507812 1806.886719 C 1070.125 1810.792969 1028.441406 1814.703125 985.453125 1815.351562 C 879.289062 1817.957031 773.121094 1778.230469 694.3125 1707.246094 L 689.101562 1702.6875 C 674.773438 1689.660156 660.441406 1676.636719 641.554688 1671.425781 C 631.785156 1668.820312 622.015625 1668.171875 612.246094 1668.171875 C 603.125 1668.171875 594.007812 1667.519531 585.539062 1665.566406 C 559.488281 1659.054688 543.203125 1637.5625 525.617188 1614.769531 C 517.152344 1603.699219 508.03125 1591.976562 497.613281 1582.207031 C 472.863281 1558.761719 440.296875 1546.386719 408.378906 1534.664062 C 396.003906 1530.105469 382.980469 1524.898438 370.605469 1519.6875 C 301.5625 1488.425781 258.574219 1436.976562 212.984375 1382.925781 C 200.609375 1367.945312 188.234375 1352.96875 174.554688 1337.988281 C 151.105469 1311.9375 132.871094 1280.027344 115.285156 1249.417969 C 94.441406 1212.949219 72.949219 1175.175781 42.335938 1146.523438 C 29.308594 1134.148438 14.980469 1125.03125 0 1115.261719 L 0 1122.425781 C 13.027344 1130.890625 26.703125 1140.007812 38.429688 1150.429688 C 68.390625 1178.433594 89.230469 1216.207031 110.074219 1252.023438 C 127.660156 1283.285156 145.898438 1315.195312 169.996094 1341.894531 C 183.023438 1356.875 196.046875 1371.851562 208.421875 1386.179688 C 254.667969 1440.886719 297.65625 1492.984375 368 1524.898438 C 380.375 1530.757812 393.398438 1535.316406 406.425781 1539.875 C 437.691406 1551.597656 469.605469 1563.320312 493.050781 1586.113281 C 502.824219 1595.230469 511.941406 1606.953125 520.40625 1618.023438 C 537.992188 1640.167969 555.578125 1663.613281 582.933594 1670.777344 C 592.054688 1673.382812 601.824219 1673.382812 610.941406 1673.382812 C 620.710938 1674.03125 629.832031 1674.03125 638.949219 1676.636719 C 656.535156 1681.195312 670.210938 1694.222656 683.890625 1706.59375 L 689.101562 1711.152344 C 769.867188 1783.441406 877.332031 1823.820312 985.453125 1821.214844 C 1028.441406 1820.5625 1070.777344 1816.65625 1111.160156 1812.746094 C 1180.851562 1806.886719 1247.285156 1801.027344 1319.582031 1807.539062 C 1374.945312 1813.398438 1437.472656 1816.65625 1500 1812.746094 Z M 1500 -116.246094 L 1500 -122.109375 C 1485.019531 -119.503906 1470.691406 -116.246094 1456.359375 -112.992188 C 1406.859375 -101.917969 1401 -108.433594 1382.109375 -129.273438 C 1374.945312 -137.085938 1366.476562 -146.203125 1353.453125 -156.625 C 1337.167969 -170.300781 1313.070312 -176.160156 1289.621094 -182.023438 C 1264.21875 -187.882812 1240.773438 -193.746094 1227.746094 -208.722656 C 1208.859375 -230.214844 1218.628906 -257.566406 1229.050781 -286.875 C 1238.167969 -312.921875 1247.9375 -339.625 1237.515625 -363.070312 C 1233.609375 -372.1875 1227.09375 -380.003906 1220.582031 -387.164062 C 1214.070312 -394.328125 1208.207031 -401.492188 1204.296875 -409.308594 C 1193.878906 -432.101562 1202.34375 -456.847656 1212.113281 -482.898438 C 1216.675781 -495.925781 1221.882812 -509.601562 1223.839844 -522.625 C 1225.140625 -531.089844 1225.792969 -538.90625 1225.140625 -547.371094 L 1219.277344 -547.371094 C 1219.929688 -539.558594 1219.277344 -531.742188 1217.976562 -523.925781 C 1216.023438 -510.902344 1210.8125 -497.878906 1206.253906 -484.851562 C 1196.484375 -458.804688 1186.714844 -432.101562 1198.4375 -406.703125 C 1202.34375 -397.585938 1208.859375 -390.421875 1215.371094 -382.605469 C 1221.882812 -375.441406 1227.746094 -368.28125 1231.652344 -359.8125 C 1241.425781 -338.320312 1232.304688 -312.921875 1223.1875 -288.175781 C 1212.765625 -258.871094 1201.695312 -228.261719 1222.535156 -204.164062 C 1236.863281 -187.882812 1261.613281 -182.023438 1287.667969 -176.160156 C 1310.464844 -170.953125 1333.914062 -165.089844 1349.542969 -152.066406 C 1361.917969 -141.644531 1370.386719 -132.527344 1377.550781 -124.710938 C 1397.089844 -103.222656 1404.90625 -95.40625 1457.664062 -107.128906 C 1471.992188 -110.386719 1485.671875 -113.640625 1500 -116.246094 Z M 451.367188 1755.4375 C 431.175781 1741.109375 410.335938 1728.085938 390.144531 1715.0625 C 328.269531 1675.335938 268.996094 1637.5625 223.40625 1578.949219 C 216.890625 1570.484375 210.378906 1561.367188 203.863281 1552.898438 C 190.1875 1534.015625 175.859375 1514.476562 158.921875 1498.195312 C 145.246094 1484.519531 129.613281 1472.796875 114.632812 1461.726562 C 108.769531 1457.167969 102.257812 1452.609375 96.394531 1448.050781 C 56.015625 1416.136719 26.703125 1379.667969 0 1340.59375 L 0 1351.011719 C 25.402344 1387.484375 54.058594 1422 92.488281 1452.609375 C 98.351562 1457.167969 104.863281 1462.375 110.726562 1466.285156 C 125.707031 1477.355469 140.6875 1489.078125 154.363281 1502.753906 C 170.648438 1519.035156 184.976562 1538.574219 198.652344 1556.808594 C 205.167969 1565.273438 211.679688 1574.390625 218.195312 1582.859375 C 265.089844 1642.773438 324.359375 1680.542969 386.886719 1720.269531 C 407.078125 1733.296875 427.921875 1746.320312 448.109375 1760.648438 C 468.953125 1774.976562 516.5 1814.050781 501.519531 1857.03125 C 496.308594 1871.359375 484.585938 1877.871094 472.210938 1885.035156 C 466.347656 1888.292969 459.835938 1892.199219 453.972656 1896.757812 C 433.78125 1913.691406 425.316406 1929.972656 413.589844 1951.464844 L 412.289062 1954.070312 C 399.914062 1978.164062 382.980469 1992.492188 362.136719 1997.703125 C 328.265625 2006.167969 283.324219 1990.539062 225.359375 1950.160156 C 158.273438 1903.921875 88.582031 1885.6875 29.960938 1898.710938 C 20.191406 1900.667969 10.421875 1903.921875 0.652344 1907.828125 L 0.652344 1913.691406 C 11.074219 1909.785156 20.84375 1906.527344 31.261719 1903.921875 C 88.582031 1890.898438 156.316406 1909.132812 222.101562 1954.71875 C 281.371094 1995.75 327.617188 2011.378906 363.4375 2002.910156 C 386.234375 1997.050781 404.472656 1981.421875 417.5 1956.671875 L 418.800781 1954.070312 C 430.523438 1931.925781 438.339844 1916.949219 457.882812 1900.667969 C 463.089844 1896.109375 469.605469 1892.851562 475.464844 1889.59375 C 488.492188 1882.429688 501.519531 1874.617188 507.382812 1858.988281 C 523.664062 1811.445312 473.511719 1771.066406 451.367188 1755.4375 Z M 451.367188 1755.4375 " fill-opacity="1" fill-rule="nonzero"/></g></g></g></g></svg>