<svg xmlns="http://www.w3.org/2000/svg" xmlns:xlink="http://www.w3.org/1999/xlink" width="2000" zoomAndPan="magnify" viewBox="0 0 1500 1499.999933" height="2000" preserveAspectRatio="xMidYMid meet" version="1.0"><defs><filter x="0%" y="0%" width="100%" height="100%" id="7dfc5e6a91"><feColorMatrix values="0 0 0 0 1 0 0 0 0 1 0 0 0 0 1 0 0 0 1 0" color-interpolation-filters="sRGB"/></filter><mask id="123c4181dd"><g filter="url(#7dfc5e6a91)"><rect x="-150" width="1800" fill="#000000" y="-149.999993" height="1799.99992" fill-opacity="0.5686"/></g></mask><clipPath id="99bf353e86"><path d="M 0 0 L 1500 0 L 1500 1500 L 0 1500 Z M 0 0 " clip-rule="nonzero"/></clipPath><clipPath id="a081e3be86"><rect x="0" width="1500" y="0" height="1500"/></clipPath></defs><g mask="url(#123c4181dd)"><g transform="matrix(1, 0, 0, 1, 0, 0.000000000000112861)"><g clip-path="url(#a081e3be86)"><g clip-path="url(#99bf353e86)"><path fill="#dff3d3" d="M 1668.898438 1483.125 C 1670.246094 1415.710938 1664.851562 1350.320312 1659.457031 1286.953125 C 1655.414062 1237.070312 1651.367188 1185.835938 1650.019531 1133.253906 C 1649.34375 1105.617188 1650.019531 1077.976562 1650.691406 1051.6875 C 1652.714844 970.117188 1654.738281 893.269531 1621.699219 811.027344 C 1593.382812 740.917969 1543.492188 686.988281 1503.039062 647.886719 C 1492.925781 637.777344 1481.460938 628.339844 1469.328125 618.226562 C 1430.894531 585.871094 1386.398438 548.792969 1381.675781 501.605469 C 1374.261719 433.519531 1342.574219 366.105469 1287.285156 301.390625 C 1258.96875 267.683594 1224.582031 244.089844 1191.546875 221.171875 C 1165.925781 202.96875 1138.957031 184.769531 1114.683594 161.171875 C 1091.761719 138.925781 1072.882812 113.3125 1054.679688 88.367188 C 1043.890625 74.210938 1033.105469 59.382812 1021.640625 45.226562 C 1001.414062 20.28125 978.492188 -3.984375 954.21875 -26.230469 L 945.453125 -26.230469 C 971.074219 -2.636719 995.347656 22.304688 1016.921875 48.59375 C 1028.382812 62.75 1039.171875 76.910156 1049.285156 91.066406 C 1067.488281 116.007812 1087.042969 142.296875 1109.964844 164.542969 C 1134.238281 188.136719 1161.207031 207.011719 1187.5 225.214844 C 1219.863281 248.136719 1253.574219 271.054688 1281.890625 304.085938 C 1336.503906 368.128906 1367.519531 434.191406 1374.933594 500.929688 C 1380.328125 550.140625 1424.828125 587.890625 1464.605469 621.597656 C 1476.742188 631.710938 1488.203125 641.820312 1498.316406 651.257812 C 1538.097656 690.359375 1587.988281 743.613281 1615.632812 812.375 C 1647.996094 893.269531 1645.972656 969.445312 1643.949219 1051.011719 C 1643.277344 1077.304688 1642.601562 1104.941406 1643.277344 1132.582031 C 1644.625 1185.164062 1648.671875 1236.394531 1652.714844 1286.28125 C 1658.109375 1349.648438 1663.503906 1415.039062 1662.15625 1481.777344 C 1661.480469 1496.605469 1660.804688 1510.761719 1658.109375 1525.59375 L 1664.175781 1525.59375 C 1667.546875 1512.109375 1668.898438 1497.28125 1668.898438 1483.125 Z M -206.792969 1526.265625 L -212.863281 1526.265625 C -212.863281 1477.730469 -206.121094 1428.519531 -181.847656 1386.722656 C -157.574219 1343.582031 -150.160156 1319.3125 -169.035156 1278.867188 C -173.082031 1270.101562 -177.128906 1262.6875 -180.5 1254.597656 C -200.050781 1214.824219 -216.90625 1180.445312 -204.097656 1128.535156 L -203.421875 1127.1875 C -196.679688 1099.550781 -187.914062 1065.84375 -210.839844 1054.382812 C -224.324219 1047.640625 -240.503906 1055.058594 -255.335938 1062.472656 C -257.359375 1063.820312 -260.058594 1064.496094 -262.078125 1065.84375 C -335.570312 1098.875 -419.175781 1064.496094 -498.058594 1023.375 C -549.300781 996.410156 -599.191406 1011.914062 -652.457031 1028.09375 C -665.265625 1032.136719 -678.75 1036.183594 -691.558594 1039.550781 C -695.605469 1040.226562 -698.976562 1041.574219 -703.023438 1042.25 L -703.023438 1036.183594 C -699.652344 1035.507812 -696.28125 1034.160156 -692.910156 1033.484375 C -680.097656 1030.113281 -666.613281 1026.070312 -653.804688 1022.023438 C -599.867188 1005.171875 -548.625 989.667969 -495.363281 1017.980469 C -417.152344 1058.429688 -335.570312 1092.132812 -264.101562 1060.449219 C -262.082031 1059.101562 -259.382812 1058.429688 -257.359375 1057.078125 C -241.851562 1049.664062 -223.648438 1041.574219 -207.46875 1048.988281 C -180.5 1062.472656 -189.9375 1100.898438 -197.355469 1128.535156 L -198.027344 1130.558594 C -210.839844 1179.769531 -193.984375 1213.476562 -175.105469 1251.902344 C -171.058594 1259.988281 -167.015625 1268.078125 -163.644531 1276.167969 C -144.089844 1318.636719 -151.507812 1344.929688 -177.128906 1389.421875 C -200.050781 1430.542969 -206.792969 1478.40625 -206.792969 1526.265625 Z M -206.792969 1526.265625 " fill-opacity="1" fill-rule="nonzero"/><path fill="#d9d9d9" d="M 2020.839844 1384.703125 C 2022.863281 1319.988281 2035 1255.945312 2055.226562 1195.273438 L 2055.226562 1177.074219 C 2030.953125 1243.8125 2017.46875 1313.917969 2014.773438 1384.703125 C 2013.425781 1431.890625 2016.121094 1479.078125 2020.839844 1526.265625 L 2026.910156 1526.265625 C 2022.191406 1479.078125 2018.820312 1431.890625 2020.839844 1384.703125 Z M -537.835938 1504.023438 C -561.433594 1484.472656 -612.675781 1499.976562 -653.804688 1512.109375 C -669.3125 1516.828125 -682.796875 1520.875 -692.910156 1522.898438 C -696.28125 1523.570312 -699.652344 1524.246094 -703.695312 1524.246094 L -703.695312 1518.179688 C -700.324219 1517.503906 -697.628906 1517.503906 -694.257812 1516.828125 C -684.144531 1515.480469 -670.660156 1510.761719 -655.828125 1506.71875 C -613.351562 1493.910156 -560.085938 1477.730469 -534.464844 1499.300781 C -526.375 1506.042969 -521.65625 1516.15625 -516.9375 1526.265625 L -523.679688 1526.265625 C -527.050781 1517.503906 -531.09375 1508.742188 -537.835938 1504.023438 Z M 1918.359375 1526.265625 L 1912.292969 1526.265625 C 1912.964844 1404.25 1914.988281 1278.867188 1960.835938 1164.265625 C 1968.925781 1144.042969 1977.691406 1123.144531 1986.457031 1103.59375 C 2006.683594 1056.40625 2027.582031 1007.195312 2041.742188 955.960938 C 2045.113281 943.828125 2047.808594 931.019531 2051.179688 918.886719 C 2051.855469 912.816406 2053.878906 906.75 2055.226562 900.683594 L 2055.226562 926.300781 C 2053.203125 937.085938 2050.507812 947.871094 2047.136719 957.984375 C 2032.976562 1009.21875 2011.402344 1058.429688 1991.175781 1106.289062 C 1982.410156 1125.839844 1973.644531 1146.738281 1965.554688 1166.960938 C 1920.382812 1280.214844 1918.359375 1404.925781 1918.359375 1526.265625 Z M -442.097656 1526.265625 L -448.839844 1526.265625 C -450.863281 1523.570312 -452.886719 1520.199219 -454.90625 1517.503906 C -464.347656 1504.023438 -474.460938 1489.863281 -477.15625 1473.011719 C -478.503906 1463.574219 -477.832031 1454.136719 -476.484375 1445.375 C -475.808594 1437.957031 -475.132812 1430.542969 -475.132812 1423.128906 C -475.808594 1409.644531 -479.855469 1401.554688 -485.246094 1398.859375 C -496.710938 1392.792969 -518.285156 1406.949219 -533.792969 1416.386719 C -536.488281 1418.410156 -539.183594 1419.757812 -541.207031 1421.105469 C -589.078125 1450.765625 -645.039062 1458.179688 -701.671875 1458.179688 L -701.671875 1452.113281 C -645.714844 1451.441406 -591.101562 1444.699219 -543.90625 1415.710938 C -541.882812 1414.363281 -539.183594 1412.339844 -536.488281 1410.992188 C -518.957031 1399.53125 -497.382812 1385.375 -482.550781 1392.792969 C -474.460938 1396.835938 -469.742188 1406.273438 -469.066406 1422.453125 C -468.390625 1430.542969 -469.742188 1437.957031 -470.414062 1445.375 C -471.761719 1454.8125 -472.4375 1462.898438 -471.089844 1471.664062 C -469.066406 1487.167969 -459.628906 1499.976562 -450.1875 1513.460938 C -447.492188 1518.179688 -444.792969 1522.222656 -442.097656 1526.265625 Z M 1833.40625 1526.265625 L 1827.339844 1526.265625 C 1828.6875 1483.796875 1826.664062 1440.652344 1823.96875 1398.859375 L 1813.179688 1195.273438 C 1810.484375 1140.671875 1809.808594 1090.785156 1839.476562 1037.53125 C 1873.1875 976.183594 1894.761719 922.929688 1907.570312 871.695312 C 1911.617188 856.191406 1914.3125 840.6875 1917.683594 825.183594 C 1923.753906 794.847656 1929.820312 763.835938 1941.957031 734.851562 C 1967.578125 674.179688 2006.683594 655.304688 2055.902344 647.214844 L 2055.902344 653.28125 C 2008.03125 661.371094 1971.621094 679.570312 1948.023438 737.546875 C 1935.890625 765.859375 1929.820312 796.867188 1924.425781 826.53125 C 1921.054688 842.035156 1918.359375 858.214844 1914.3125 873.71875 C 1900.828125 925.625 1879.253906 978.882812 1845.542969 1040.902344 C 1817.226562 1092.808594 1817.226562 1141.34375 1820.597656 1195.273438 L 1830.035156 1398.183594 C 1832.058594 1440.652344 1834.753906 1483.796875 1833.40625 1526.265625 Z M -328.828125 1526.265625 L -334.894531 1526.265625 C -335.570312 1514.808594 -336.917969 1504.023438 -340.964844 1493.910156 C -347.707031 1473.6875 -363.214844 1456.832031 -377.371094 1440.652344 C -393.554688 1422.453125 -410.410156 1403.578125 -416.476562 1379.308594 C -417.824219 1373.242188 -419.171875 1367.175781 -419.847656 1361.109375 C -423.894531 1335.492188 -427.265625 1317.289062 -464.347656 1319.988281 C -480.527344 1321.335938 -496.710938 1328.074219 -512.214844 1334.816406 C -514.914062 1336.164062 -517.609375 1336.839844 -520.308594 1338.1875 C -575.59375 1361.78125 -637.621094 1373.242188 -703.695312 1373.917969 L -703.695312 1367.847656 C -638.296875 1367.175781 -577.617188 1355.714844 -523.003906 1332.792969 C -520.308594 1331.445312 -517.609375 1330.773438 -514.914062 1329.425781 C -499.40625 1322.683594 -482.550781 1315.269531 -465.019531 1314.59375 C -423.21875 1311.898438 -418.5 1335.492188 -414.453125 1361.109375 C -413.105469 1367.175781 -412.433594 1373.242188 -411.082031 1379.308594 C -405.015625 1402.230469 -389.507812 1419.757812 -373.328125 1438.632812 C -358.492188 1455.484375 -342.988281 1473.011719 -335.570312 1493.910156 C -331.523438 1502.671875 -330.175781 1514.808594 -328.828125 1526.265625 Z M 1668.222656 293.300781 C 1661.480469 289.257812 1656.085938 283.863281 1650.691406 277.796875 C 1638.554688 264.3125 1626.421875 248.808594 1615.632812 233.976562 C 1600.125 213.082031 1583.269531 191.507812 1564.390625 174.65625 C 1548.210938 160.5 1530.679688 147.691406 1513.824219 135.558594 C 1490.902344 118.703125 1466.628906 101.851562 1446.402344 79.605469 C 1427.523438 59.382812 1411.34375 37.136719 1395.160156 15.5625 C 1385.046875 2.082031 1374.261719 -12.074219 1362.800781 -26.230469 L 1370.214844 -26.230469 C 1380.328125 -13.425781 1389.769531 -0.617188 1399.207031 11.519531 C 1415.386719 33.089844 1431.570312 54.664062 1450.449219 74.886719 C 1470.675781 96.457031 1494.273438 113.3125 1517.195312 129.488281 C 1534.050781 141.625 1551.582031 154.433594 1567.761719 169.261719 C 1587.316406 186.789062 1604.171875 208.363281 1619.679688 229.933594 C 1631.140625 244.765625 1642.601562 259.59375 1654.738281 273.078125 C 1659.457031 278.46875 1664.851562 283.863281 1670.917969 287.234375 C 1689.796875 298.019531 1704.628906 298.695312 1716.09375 289.929688 C 1741.710938 269.03125 1742.386719 196.902344 1732.273438 167.914062 C 1730.25 161.847656 1728.226562 155.78125 1726.207031 149.714844 C 1711.371094 106.570312 1695.867188 62.078125 1705.304688 17.585938 C 1708.675781 2.753906 1714.070312 -12.074219 1720.8125 -26.230469 L 1727.554688 -26.230469 C 1720.8125 -11.402344 1714.070312 3.429688 1710.699219 18.257812 C 1701.257812 61.402344 1716.765625 105.222656 1731.597656 147.691406 C 1733.621094 153.757812 1735.644531 159.824219 1737.667969 165.890625 C 1746.433594 193.53125 1749.128906 269.707031 1719.464844 294.648438 C 1707.328125 306.785156 1689.796875 306.109375 1668.222656 293.300781 Z M 2055.226562 231.957031 C 2044.4375 214.429688 2034.324219 196.226562 2028.257812 177.351562 C 2006.683594 109.265625 1999.265625 43.875 2006.007812 -24.882812 L 2012.75 -24.882812 C 2006.007812 43.203125 2012.75 107.917969 2034.324219 175.328125 C 2039.046875 190.835938 2046.460938 205.664062 2055.226562 220.496094 Z M 1720.8125 624.292969 C 1675.640625 598.675781 1654.738281 552.164062 1634.511719 506.996094 C 1623.050781 481.378906 1611.585938 455.089844 1595.40625 433.519531 C 1501.6875 306.109375 1374.261719 132.1875 1215.816406 35.785156 C 1205.703125 29.71875 1194.917969 23.652344 1184.804688 17.585938 C 1161.878906 4.101562 1138.28125 -9.378906 1116.707031 -25.558594 L 1126.820312 -25.558594 C 1146.375 -11.402344 1167.273438 0.734375 1188.175781 12.191406 C 1198.960938 18.261719 1209.074219 24.328125 1219.1875 30.394531 C 1378.304688 127.46875 1507.082031 302.066406 1600.800781 429.472656 C 1616.980469 451.71875 1629.117188 478.683594 1640.578125 504.300781 C 1660.132812 548.792969 1681.03125 593.957031 1724.855469 618.902344 C 1751.152344 633.730469 1803.742188 649.238281 1837.453125 638.449219 C 1850.261719 634.40625 1859.703125 626.992188 1865.09375 615.53125 C 1871.164062 602.046875 1871.835938 586.542969 1872.511719 571.710938 C 1873.859375 545.421875 1874.535156 517.785156 1908.246094 504.300781 C 1926.449219 496.886719 1946.003906 495.539062 1965.554688 493.515625 C 1972.296875 492.839844 1979.039062 492.167969 1985.78125 491.492188 C 2012.078125 488.121094 2036.347656 480.707031 2056.574219 469.921875 L 2056.574219 476.660156 C 2036.347656 487.449219 2012.75 494.1875 1987.128906 497.558594 C 1980.386719 498.234375 1973.644531 498.90625 1966.230469 499.582031 C 1947.351562 500.929688 1928.472656 502.953125 1910.941406 509.695312 C 1881.277344 521.828125 1879.929688 545.421875 1879.253906 571.710938 C 1878.582031 587.21875 1877.90625 603.398438 1871.164062 618.226562 C 1865.09375 631.035156 1854.980469 639.125 1840.148438 643.84375 C 1800.371094 656.652344 1745.757812 638.449219 1720.8125 624.292969 Z M 1534.050781 18.257812 C 1519.21875 7.472656 1507.082031 -6.683594 1494.945312 -20.839844 C 1493.597656 -22.1875 1492.25 -23.535156 1490.902344 -25.558594 L 1498.992188 -25.558594 C 1498.992188 -25.558594 1499.667969 -24.882812 1499.667969 -24.882812 C 1511.128906 -11.402344 1523.265625 2.753906 1537.421875 12.867188 C 1552.929688 24.328125 1576.527344 33.089844 1590.6875 27.023438 C 1598.101562 23.652344 1602.148438 16.238281 1602.824219 4.777344 C 1603.496094 -2.636719 1601.472656 -11.402344 1600.125 -20.164062 C 1599.453125 -22.1875 1599.453125 -24.210938 1598.777344 -25.558594 L 1604.84375 -25.558594 C 1604.84375 -24.210938 1605.519531 -22.863281 1605.519531 -20.839844 C 1607.542969 -11.402344 1608.890625 -2.636719 1608.890625 6.125 C 1607.542969 19.609375 1602.148438 28.371094 1592.710938 33.089844 C 1576.527344 40.503906 1551.582031 31.066406 1534.050781 18.257812 Z M 366.296875 1450.09375 C 307.640625 1425.824219 291.457031 1348.972656 305.617188 1285.605469 C 311.683594 1257.96875 322.472656 1231.003906 332.585938 1204.710938 C 344.722656 1173.703125 357.53125 1141.34375 362.25 1107.636719 C 380.457031 988.320312 304.269531 877.761719 235.496094 794.847656 C 202.460938 754.398438 162.007812 708.558594 114.136719 670.132812 C 37.949219 609.464844 -54.417969 572.386719 -142.742188 535.984375 C -215.558594 506.324219 -291.070312 475.988281 -369.957031 463.851562 C -407.039062 458.460938 -442.773438 458.460938 -477.832031 458.460938 C -539.859375 458.460938 -597.84375 458.460938 -659.199219 430.820312 C -674.703125 424.082031 -688.863281 415.992188 -702.347656 407.902344 L -702.347656 401.160156 C -688.1875 410.597656 -672.683594 418.6875 -656.5 426.101562 C -596.496094 453.742188 -538.511719 453.742188 -477.832031 453.742188 C -442.773438 453.742188 -406.363281 453.742188 -369.28125 459.132812 C -289.722656 471.269531 -213.535156 501.605469 -140.71875 531.265625 C -51.722656 567.667969 40.644531 604.746094 117.507812 666.089844 C 166.050781 704.515625 206.503906 751.027344 239.542969 791.476562 C 308.3125 875.742188 385.847656 987.644531 367.644531 1108.988281 C 362.25 1143.367188 350.113281 1175.726562 337.980469 1207.410156 C 327.867188 1233.023438 317.753906 1259.988281 311.683594 1286.953125 C 298.199219 1347.625 313.707031 1421.777344 368.992188 1444.699219 C 400.683594 1457.507812 441.808594 1451.441406 482.261719 1427.847656 C 499.792969 1417.058594 516.648438 1404.25 532.828125 1392.117188 C 548.335938 1380.65625 563.84375 1367.847656 580.699219 1357.738281 C 656.886719 1311.222656 758.019531 1299.089844 890.167969 1320.660156 C 922.53125 1326.054688 955.566406 1332.796875 987.929688 1339.535156 C 1057.375 1354.367188 1130.191406 1369.199219 1202.332031 1369.199219 C 1262.339844 1369.199219 1309.535156 1344.929688 1339.203125 1299.761719 C 1358.078125 1270.777344 1369.542969 1232.351562 1371.5625 1189.882812 C 1372.238281 1184.488281 1372.238281 1179.09375 1372.238281 1173.703125 C 1372.238281 1135.277344 1365.496094 1096.851562 1357.40625 1054.382812 C 1336.503906 947.871094 1266.386719 862.257812 1198.964844 779.34375 C 1171.992188 746.308594 1144.351562 712.605469 1120.753906 678.222656 C 1064.117188 597.328125 1024.339844 506.996094 985.234375 419.363281 C 977.144531 400.484375 968.378906 382.285156 960.289062 363.410156 C 952.871094 346.554688 944.78125 329.703125 936.691406 313.523438 C 891.515625 222.519531 834.207031 120.726562 729.027344 58.707031 C 652.167969 14.214844 566.542969 15.5625 481.589844 62.75 C 405.402344 105.222656 332.585938 109.941406 246.285156 78.257812 C 180.210938 53.988281 128.296875 18.933594 83.796875 -23.535156 L 92.5625 -23.535156 C 135.710938 16.238281 185.605469 49.941406 248.980469 72.863281 C 335.28125 103.871094 404.054688 99.828125 479.566406 58.03125 C 566.539062 9.496094 654.191406 8.148438 733.074219 53.988281 C 839.601562 116.007812 897.585938 219.148438 943.433594 310.828125 C 951.523438 327.679688 959.613281 344.535156 967.03125 361.386719 C 975.121094 380.261719 983.886719 398.464844 991.976562 417.339844 C 1032.429688 508.34375 1070.859375 594.632812 1126.820312 675.527344 C 1150.417969 709.90625 1178.0625 743.613281 1205.03125 776.644531 C 1273.128906 860.234375 1343.921875 946.523438 1364.820312 1054.382812 C 1374.261719 1102.917969 1382.351562 1146.738281 1379.65625 1191.230469 C 1377.632812 1235.046875 1365.496094 1274.144531 1345.945312 1304.480469 C 1315.601562 1351.671875 1266.386719 1376.613281 1203.683594 1376.613281 C 1130.867188 1376.613281 1058.050781 1361.109375 987.929688 1346.953125 C 956.242188 1340.210938 923.207031 1333.46875 890.84375 1328.074219 C 760.71875 1306.503906 660.257812 1317.964844 585.417969 1364.476562 C 569.238281 1374.589844 553.054688 1386.722656 538.222656 1398.183594 C 522.042969 1410.992188 505.1875 1423.800781 486.984375 1434.585938 C 442.484375 1457.507812 399.332031 1463.574219 366.296875 1450.09375 Z M 209.875 -12.75 C 199.089844 -16.121094 188.976562 -20.164062 178.1875 -24.882812 L 193.019531 -24.882812 C 199.089844 -22.863281 205.15625 -20.164062 211.226562 -18.816406 C 295.503906 6.125 383.828125 -8.03125 468.777344 -21.511719 C 476.871094 -22.863281 484.960938 -24.210938 493.050781 -25.558594 L 534.179688 -25.558594 C 513.277344 -22.863281 491.703125 -19.492188 470.128906 -16.121094 C 385.175781 -1.964844 296.175781 12.191406 209.875 -12.75 Z M 484.285156 1526.265625 L 475.519531 1526.265625 C 501.816406 1503.347656 526.761719 1479.078125 551.035156 1453.460938 L 556.425781 1447.394531 C 568.5625 1434.585938 580.699219 1421.777344 594.183594 1410.320312 C 631.265625 1381.332031 683.183594 1366.5 741.839844 1368.523438 C 785.664062 1369.871094 828.140625 1380.65625 868.59375 1391.445312 C 888.820312 1396.835938 910.394531 1402.230469 931.296875 1406.273438 C 962.984375 1412.339844 996.023438 1418.410156 1027.710938 1423.800781 C 1060.746094 1429.867188 1095.132812 1435.261719 1128.84375 1442.003906 L 1134.910156 1443.351562 C 1180.757812 1452.789062 1228.628906 1462.226562 1275.148438 1459.53125 C 1366.84375 1454.136719 1427.523438 1388.074219 1442.359375 1278.867188 C 1445.730469 1253.25 1447.75 1227.632812 1447.75 1202.691406 C 1447.75 983.601562 1318.300781 805.632812 1192.894531 632.382812 C 1120.753906 532.613281 1045.914062 429.472656 996.695312 320.265625 C 989.953125 305.433594 983.886719 290.605469 977.144531 275.773438 C 936.691406 182.070312 894.214844 84.996094 808.585938 24.328125 C 771.503906 -1.964844 734.421875 -16.792969 696.667969 -24.210938 L 720.265625 -24.210938 C 751.277344 -15.445312 782.292969 -1.289062 812.632812 19.609375 C 899.605469 81.625 942.082031 178.699219 983.210938 273.75 C 989.953125 288.582031 996.019531 303.414062 1002.761719 318.242188 C 1051.980469 427.449219 1126.148438 529.917969 1198.289062 629.6875 C 1338.527344 823.160156 1483.484375 1023.375 1449.101562 1280.214844 C 1432.917969 1391.445312 1369.542969 1459.53125 1275.148438 1464.921875 C 1227.28125 1467.617188 1179.410156 1458.179688 1133.5625 1448.742188 L 1127.496094 1447.394531 C 1093.785156 1440.652344 1059.398438 1434.585938 1026.363281 1429.195312 C 994.671875 1423.800781 962.308594 1418.410156 929.949219 1411.667969 C 909.046875 1407.621094 887.472656 1402.230469 866.570312 1396.835938 C 826.117188 1386.722656 784.316406 1375.9375 741.164062 1374.589844 C 684.53125 1372.566406 633.289062 1387.398438 597.554688 1415.039062 C 584.070312 1425.824219 571.933594 1438.632812 560.472656 1451.441406 L 555.078125 1457.507812 C 532.15625 1481.777344 508.558594 1504.695312 484.285156 1526.265625 Z M 100.652344 1447.394531 C 94.585938 1470.316406 87.84375 1498.628906 87.84375 1526.265625 L 81.773438 1526.265625 C 82.449219 1497.953125 88.515625 1468.96875 94.585938 1445.375 C 112.113281 1381.332031 136.386719 1298.414062 175.492188 1224.9375 C 183.582031 1209.429688 192.347656 1193.25 198.414062 1176.398438 C 226.734375 1100.222656 211.898438 1010.566406 153.917969 911.46875 C 146.5 898.660156 139.082031 885.179688 132.339844 873.042969 C 101.328125 817.09375 72.335938 764.511719 16.375 724.738281 C -33.519531 689.683594 -92.851562 669.460938 -154.878906 650.585938 C -261.40625 617.554688 -374.675781 587.21875 -487.945312 602.046875 C -511.542969 605.417969 -535.816406 610.136719 -558.738281 615.53125 C -606.609375 625.640625 -655.828125 636.429688 -703.695312 630.359375 L -703.695312 624.292969 C -656.5 631.035156 -607.28125 620.25 -560.085938 610.136719 C -536.488281 604.746094 -512.21875 600.027344 -488.617188 596.65625 C -374.675781 581.152344 -260.058594 612.160156 -152.855469 645.191406 C -90.828125 664.066406 -30.820312 684.289062 19.746094 720.019531 C 77.054688 760.464844 106.71875 813.722656 137.734375 870.347656 C 144.476562 883.15625 151.894531 895.964844 159.308594 908.773438 C 217.96875 1009.890625 232.800781 1100.222656 203.808594 1178.421875 C 197.066406 1195.949219 188.976562 1212.128906 180.210938 1227.632812 C 143.128906 1300.4375 118.183594 1383.355469 100.652344 1447.394531 Z M 1414.039062 1526.265625 L 1405.273438 1526.265625 C 1433.59375 1498.628906 1457.191406 1460.203125 1476.070312 1410.992188 C 1489.554688 1375.9375 1498.992188 1336.839844 1505.734375 1295.042969 C 1525.285156 1171.007812 1514.5 1058.429688 1474.046875 968.769531 C 1422.128906 854.167969 1352.6875 757.769531 1290.65625 678.222656 C 1250.203125 626.316406 1214.46875 571.039062 1180.085938 518.457031 C 1158.507812 485.425781 1136.261719 451.046875 1113.335938 418.011719 C 1076.253906 364.757812 1046.589844 307.457031 1018.945312 252.179688 C 962.984375 142.972656 910.394531 39.15625 802.519531 -25.558594 L 813.980469 -25.558594 C 917.8125 40.503906 969.726562 142.296875 1024.339844 249.484375 C 1052.65625 304.761719 1081.648438 361.386719 1118.730469 414.644531 C 1141.652344 447.675781 1163.902344 482.054688 1185.476562 515.085938 C 1219.863281 567.667969 1255.597656 622.945312 1296.050781 674.851562 C 1358.078125 754.398438 1428.199219 851.472656 1480.113281 966.074219 C 1520.566406 1056.40625 1532.027344 1170.332031 1512.476562 1295.71875 C 1505.734375 1338.1875 1495.621094 1377.285156 1482.136719 1413.015625 C 1463.257812 1460.878906 1441.007812 1498.628906 1414.039062 1526.265625 Z M 944.78125 1524.917969 L 948.824219 1526.265625 L 927.25 1526.265625 C 845.667969 1502.671875 747.234375 1476.382812 666.324219 1497.28125 C 641.378906 1504.023438 618.457031 1513.460938 596.882812 1526.265625 L 585.417969 1526.265625 C 609.691406 1511.4375 635.984375 1499.300781 664.976562 1491.886719 C 753.300781 1468.96875 859.152344 1499.976562 944.78125 1524.917969 Z M -32.84375 1526.265625 L -38.910156 1526.265625 C -36.890625 1510.761719 -33.519531 1495.933594 -30.820312 1481.101562 L -28.796875 1470.316406 C -20.707031 1429.195312 -12.617188 1386.722656 4.238281 1346.953125 C 13.675781 1326.054688 25.140625 1304.480469 37.273438 1281.5625 C 71.660156 1218.195312 107.394531 1153.480469 88.515625 1085.394531 C 71.660156 1025.394531 36.601562 965.398438 -22.054688 896.640625 C -25.425781 893.269531 -28.125 889.222656 -31.496094 885.851562 C -48.351562 865.628906 -67.230469 842.035156 -90.828125 831.921875 C -110.378906 823.160156 -134.652344 820.464844 -158.25 817.765625 C -168.363281 816.417969 -178.476562 815.746094 -187.914062 813.722656 C -324.78125 790.128906 -465.695312 765.859375 -606.609375 767.882812 C -612 767.882812 -617.394531 767.882812 -622.789062 767.882812 C -649.757812 768.554688 -677.402344 769.230469 -704.371094 764.511719 L -704.371094 758.445312 C -677.402344 762.488281 -649.757812 762.488281 -622.789062 761.816406 C -617.394531 761.816406 -612 761.816406 -606.609375 761.816406 C -465.019531 760.464844 -323.433594 784.734375 -186.566406 808.328125 C -177.800781 809.675781 -167.6875 811.027344 -157.574219 812.375 C -133.304688 815.070312 -109.03125 817.765625 -88.804688 826.53125 C -63.859375 837.316406 -44.304688 860.910156 -26.777344 881.808594 C -23.40625 885.179688 -20.707031 889.222656 -18.011719 892.59375 C 41.320312 962.027344 77.054688 1023.375 93.910156 1084.042969 C 113.460938 1154.152344 77.054688 1220.214844 41.996094 1284.257812 C 29.859375 1306.503906 18.398438 1328.074219 8.957031 1348.972656 C -7.898438 1388.074219 -15.988281 1430.542969 -23.40625 1470.988281 L -25.425781 1481.777344 C -27.449219 1496.605469 -30.148438 1511.4375 -32.84375 1526.265625 Z M 1555.628906 1526.265625 L 1548.886719 1526.265625 C 1552.929688 1517.503906 1556.976562 1508.742188 1561.019531 1499.976562 C 1647.320312 1290.324219 1577.875 981.578125 1468.652344 797.542969 C 1432.917969 737.546875 1391.117188 682.269531 1343.921875 632.382812 C 1255.597656 539.355469 1191.546875 428.125 1129.519531 320.941406 C 1072.882812 223.191406 1014.898438 122.074219 939.386719 36.460938 C 919.160156 13.539062 898.257812 -6.683594 875.335938 -24.882812 L 884.773438 -24.882812 C 905.675781 -7.355469 925.226562 11.519531 944.105469 32.417969 C 1020.292969 118.703125 1078.277344 219.820312 1134.910156 318.242188 C 1196.941406 425.429688 1260.992188 536.660156 1348.640625 629.011719 C 1395.835938 678.898438 1438.3125 734.851562 1474.046875 794.847656 C 1583.269531 979.554688 1653.390625 1290.324219 1566.414062 1502 C 1563.042969 1510.761719 1559.671875 1518.179688 1555.628906 1526.265625 Z M -127.234375 1526.265625 L -133.304688 1526.265625 C -132.628906 1520.199219 -131.28125 1514.132812 -130.605469 1508.742188 C -120.492188 1458.855469 -98.917969 1410.992188 -78.691406 1365.152344 C -59.136719 1322.007812 -39.585938 1276.84375 -28.796875 1230.328125 C -20.035156 1191.902344 -20.707031 1161.566406 -31.496094 1137.972656 C -40.261719 1118.425781 -56.441406 1102.917969 -71.273438 1087.414062 C -86.109375 1072.585938 -101.613281 1057.078125 -111.726562 1037.53125 C -117.796875 1024.046875 -122.515625 1013.261719 -127.234375 1003.148438 C -144.089844 962.703125 -148.136719 951.917969 -214.882812 947.871094 C -268.820312 944.5 -319.390625 923.605469 -368.605469 904.054688 C -403.667969 889.898438 -440.074219 875.066406 -477.15625 866.976562 C -529.074219 855.515625 -585.707031 854.84375 -639.644531 854.167969 C -660.546875 854.167969 -682.121094 854.167969 -703.695312 852.820312 L -703.695312 846.753906 C -682.796875 847.429688 -661.21875 847.429688 -639.644531 848.101562 C -585.03125 848.101562 -528.398438 848.777344 -475.808594 860.910156 C -438.050781 869.675781 -401.644531 883.832031 -366.585938 898.660156 C -317.367188 918.210938 -267.472656 938.433594 -214.210938 942.480469 C -143.417969 946.523438 -138.023438 960.007812 -121.167969 1000.453125 C -117.121094 1009.890625 -112.402344 1021.351562 -106.335938 1034.160156 C -97.570312 1052.359375 -82.0625 1067.867188 -67.230469 1082.695312 C -51.722656 1098.199219 -35.539062 1114.378906 -26.101562 1134.601562 C -14.640625 1159.546875 -13.292969 1191.230469 -22.730469 1231.003906 C -33.519531 1278.191406 -53.746094 1323.355469 -73.296875 1367.175781 C -93.523438 1413.015625 -114.425781 1460.203125 -125.210938 1509.414062 C -125.886719 1515.480469 -126.5625 1520.875 -127.234375 1526.265625 Z M 1740.363281 1526.265625 L 1734.296875 1526.265625 C 1738.339844 1461.550781 1734.96875 1397.511719 1728.902344 1340.210938 C 1721.484375 1264.707031 1727.554688 1195.949219 1734.296875 1123.144531 C 1738.339844 1081.347656 1742.386719 1038.203125 1743.0625 993.710938 C 1745.757812 883.832031 1704.628906 773.949219 1631.140625 692.378906 L 1626.421875 686.988281 C 1612.9375 672.15625 1599.453125 657.324219 1594.058594 637.777344 C 1591.359375 627.664062 1590.6875 617.554688 1590.6875 607.441406 C 1590.6875 598.003906 1590.011719 588.566406 1587.988281 579.800781 C 1581.246094 552.835938 1559 535.984375 1535.398438 517.78125 C 1523.9375 509.019531 1511.800781 499.582031 1501.6875 488.796875 C 1477.417969 463.179688 1464.605469 429.472656 1452.472656 396.441406 C 1447.75 383.632812 1442.355469 370.152344 1436.964844 357.34375 C 1404.601562 285.886719 1351.335938 241.394531 1295.375 194.207031 C 1279.871094 181.398438 1264.363281 168.589844 1248.855469 154.433594 C 1221.886719 130.164062 1188.847656 111.289062 1157.160156 93.085938 C 1119.402344 71.515625 1080.300781 49.269531 1050.632812 17.585938 C 1037.824219 4.101562 1028.382812 -10.726562 1018.269531 -26.230469 L 1025.6875 -26.230469 C 1034.453125 -12.75 1043.890625 1.40625 1054.679688 13.539062 C 1083.671875 44.550781 1122.777344 66.121094 1159.859375 87.695312 C 1192.21875 105.894531 1225.257812 124.769531 1252.902344 149.714844 C 1268.40625 163.195312 1283.914062 176.679688 1298.746094 189.484375 C 1355.382812 237.347656 1409.320312 281.839844 1442.359375 354.644531 C 1448.425781 367.453125 1453.144531 380.9375 1457.863281 394.417969 C 1470 426.777344 1482.136719 459.808594 1505.734375 484.078125 C 1515.171875 494.1875 1527.308594 503.625 1538.773438 512.390625 C 1561.695312 530.589844 1585.96875 548.792969 1593.382812 577.105469 C 1596.082031 586.542969 1596.082031 596.65625 1596.082031 606.09375 C 1596.753906 616.203125 1596.753906 625.640625 1599.453125 635.078125 C 1604.171875 653.28125 1617.65625 667.4375 1630.464844 681.59375 L 1635.183594 686.988281 C 1710.023438 770.578125 1751.824219 881.808594 1749.128906 993.710938 C 1748.453125 1038.203125 1744.410156 1082.023438 1740.363281 1123.816406 C 1734.296875 1195.949219 1728.226562 1264.707031 1734.96875 1339.535156 C 1741.039062 1396.835938 1744.410156 1461.550781 1740.363281 1526.265625 Z M -256.6875 1526.265625 L -262.753906 1526.265625 C -260.058594 1510.761719 -256.6875 1495.933594 -253.316406 1481.101562 C -241.851562 1429.867188 -248.59375 1423.800781 -270.171875 1404.25 C -278.261719 1396.835938 -287.699219 1388.074219 -298.488281 1374.589844 C -312.648438 1357.738281 -318.714844 1332.796875 -324.78125 1308.527344 C -330.851562 1282.234375 -336.917969 1257.96875 -352.425781 1244.484375 C -374.675781 1224.9375 -402.992188 1235.046875 -433.332031 1245.832031 C -460.300781 1255.269531 -487.945312 1265.382812 -512.21875 1254.597656 C -521.65625 1250.550781 -529.746094 1243.8125 -537.164062 1237.070312 C -544.578125 1230.328125 -551.996094 1224.261719 -560.085938 1220.214844 C -583.683594 1209.429688 -609.304688 1218.195312 -636.273438 1228.304688 C -649.757812 1233.023438 -663.917969 1238.417969 -677.402344 1240.441406 C -686.167969 1241.789062 -694.257812 1242.460938 -703.023438 1241.789062 L -703.023438 1235.722656 C -694.929688 1236.394531 -686.839844 1235.722656 -678.75 1234.375 C -665.265625 1232.351562 -651.78125 1226.957031 -638.296875 1222.238281 C -611.328125 1212.128906 -583.683594 1202.015625 -557.390625 1214.148438 C -547.949219 1218.195312 -540.535156 1224.9375 -532.445312 1231.675781 C -525.027344 1238.417969 -517.609375 1244.484375 -508.84375 1248.53125 C -486.597656 1258.640625 -460.300781 1249.203125 -434.679688 1239.765625 C -404.339844 1228.980469 -372.652344 1217.519531 -347.707031 1239.09375 C -330.851562 1253.921875 -324.78125 1279.539062 -318.714844 1306.503906 C -313.320312 1330.097656 -307.253906 1354.367188 -293.769531 1370.546875 C -282.980469 1383.355469 -273.542969 1392.117188 -265.449219 1399.53125 C -243.203125 1419.757812 -235.109375 1427.847656 -247.246094 1482.449219 C -250.617188 1497.28125 -253.988281 1511.4375 -256.6875 1526.265625 Z M 1681.03125 440.933594 C 1666.199219 420.035156 1652.714844 398.464844 1639.230469 377.566406 C 1598.101562 313.523438 1559 252.179688 1498.316406 204.992188 C 1489.554688 198.25 1480.113281 191.507812 1471.347656 184.765625 C 1451.796875 170.609375 1431.570312 155.78125 1414.714844 138.253906 C 1400.554688 124.097656 1388.417969 107.917969 1376.957031 92.414062 C 1372.238281 86.347656 1367.519531 79.605469 1362.800781 73.539062 C 1329.761719 31.742188 1292.003906 1.40625 1251.550781 -26.230469 L 1262.339844 -26.230469 C 1300.097656 0.0585938 1335.832031 29.71875 1367.519531 69.492188 C 1372.238281 75.558594 1377.632812 82.300781 1381.675781 88.367188 C 1393.140625 103.871094 1405.273438 119.378906 1419.433594 133.535156 C 1436.289062 150.386719 1456.515625 165.21875 1475.394531 179.375 C 1484.160156 186.117188 1493.597656 192.855469 1502.363281 199.597656 C 1564.390625 248.132812 1603.496094 309.480469 1644.625 374.195312 C 1658.109375 395.09375 1671.59375 416.664062 1686.425781 437.5625 C 1701.257812 459.132812 1741.710938 508.34375 1786.210938 492.839844 C 1801.042969 487.449219 1807.785156 475.3125 1815.203125 462.503906 C 1818.574219 456.4375 1822.621094 449.695312 1827.339844 443.628906 C 1844.867188 422.730469 1861.722656 413.96875 1883.972656 401.835938 L 1886.671875 400.484375 C 1911.617188 387.675781 1926.449219 370.152344 1931.84375 348.578125 C 1940.609375 313.523438 1924.425781 267.011719 1882.625 207.011719 C 1834.753906 137.578125 1815.878906 65.449219 1829.363281 4.777344 C 1831.382812 -5.335938 1834.753906 -15.445312 1838.800781 -25.558594 L 1844.867188 -25.558594 C 1840.824219 -14.773438 1837.453125 -4.660156 1834.753906 6.125 C 1821.269531 65.449219 1840.148438 135.554688 1887.34375 203.644531 C 1929.820312 264.988281 1946.003906 312.851562 1937.238281 349.925781 C 1931.167969 373.519531 1914.988281 392.398438 1889.367188 405.878906 L 1886.671875 407.226562 C 1863.746094 419.363281 1848.238281 427.449219 1831.382812 447.675781 C 1826.664062 453.066406 1823.292969 459.808594 1819.921875 465.875 C 1812.507812 479.359375 1804.414062 492.839844 1788.234375 498.90625 C 1739.015625 515.761719 1697.214844 463.851562 1681.03125 440.933594 Z M 1681.03125 440.933594 " fill-opacity="1" fill-rule="nonzero"/></g></g></g></g></svg>